<svg xmlns="http://www.w3.org/2000/svg" version="1.1" xmlns:xlink="http://www.w3.org/1999/xlink" xmlns:svgjs="http://svgjs.dev/svgjs" width="500" height="435" viewBox="0 0 1500 935"><g transform="matrix(1,0,0,1,-0.9090909090909918,0.3785425101214628)"><svg viewBox="0 0 396 247" data-background-color="#ffffff" preserveAspectRatio="xMidYMid meet" height="935" width="1500" xmlns="http://www.w3.org/2000/svg" xmlns:xlink="http://www.w3.org/1999/xlink"><g id="tight-bounds" transform="matrix(1,0,0,1,0.2400000000000091,-0.09999999999999432)"><svg viewBox="0 0 395.52 247.2" height="247.2" width="395.52"><g><svg></svg></g><g><svg viewBox="0 0 395.52 247.2" height="247.2" width="395.52"><g transform="matrix(1,0,0,1,109.9086595842956,47.215199999999996)"><svg viewBox="0 0 175.70268083140877 152.7696" height="152.7696" width="175.70268083140877"><g><svg viewBox="0 0 175.70268083140877 152.7696" height="152.7696" width="175.70268083140877"><g><svg viewBox="0 0 175.70268083140877 152.7696" height="152.7696" width="175.70268083140877"><g><svg viewBox="0 0 175.70268083140877 152.7696" height="152.7696" width="175.70268083140877"><g id="textblocktransform"><svg viewBox="0 0 175.70268083140877 152.7696" height="152.7696" width="175.70268083140877" id="textblock"><g><svg viewBox="0 0 175.70268083140877 152.7696" height="152.7696" width="175.70268083140877"><g transform="matrix(1,0,0,1,0,0)"><svg width="175.70268083140877" viewBox="-6.6 -34.8 49.800000000000004 43.3" height="152.7696" data-palette-color="#ff4136"><path d="M-1.45 8.5L-1.45 8.5Q-4.05 8.5-5.33 7.25-6.6 6-6.6 3.6L-6.6 3.6Q-6.6 3.1-6.38 2.88-6.15 2.65-5.95 2.65L-5.95 2.65Q-5.7 2.65-5.43 2.78-5.15 2.9-4.5 3.15L-4.5 3.15Q-3.3 3.65-2.18 4.03-1.05 4.4-0.2 4.4L-0.2 4.4Q0.55 4.4 1.07 3.65 1.6 2.9 1.98 1.07 2.35-0.75 2.7-3.9L2.7-3.9 6.1-34.75 9.6-34.75Q11-34.75 11.4-33.77 11.8-32.8 11.8-31.45L11.8-31.45Q11.8-30.55 11.55-28.7 11.3-26.85 10.9-23.3L10.9-23.3 9.1-6.7Q8.65-2.45 7.63 0.48 6.6 3.4 5.2 5.18 3.8 6.95 2.1 7.73 0.4 8.5-1.45 8.5ZM29.3 0.8L29.3 0.8Q25.1 0.8 21.97-0.88 18.85-2.55 17.1-5.9 15.35-9.25 15.35-14.15L15.35-14.15Q15.35-18.65 16.77-22.43 18.2-26.2 20.8-28.98 23.4-31.75 27-33.27 30.6-34.8 35-34.8L35-34.8Q39.1-34.8 41.15-33.93 43.2-33.05 43.2-30.8L43.2-30.8Q43.2-29.6 42.77-28.75 42.35-27.9 41.85-27.9L41.85-27.9Q41.4-27.9 40.82-28.2 40.25-28.5 39.55-28.85L39.55-28.85Q38.35-29.45 36.92-30.13 35.5-30.8 33.15-30.8L33.15-30.8Q30.1-30.8 27.57-28.8 25.05-26.8 23.52-23.28 22-19.75 22-15.05L22-15.05Q22-11.1 23.17-8.45 24.35-5.8 26.3-4.5 28.25-3.2 30.55-3.2L30.55-3.2Q32.45-3.2 33.95-3.93 35.45-4.65 36.57-5.6 37.7-6.55 38.6-7.28 39.5-8 40.2-8L40.2-8Q40.75-8 41.12-7.75 41.5-7.5 41.5-6.7L41.5-6.7Q41.5-4.75 39.85-3.05 38.2-1.35 35.45-0.28 32.7 0.8 29.3 0.8Z" opacity="1" transform="matrix(1,0,0,1,0,0)" fill="#ff4136" class="wordmark-text-0" data-fill-palette-color="primary" id="text-0"></path></svg></g></svg></g></svg></g></svg></g></svg></g></svg></g></svg></g><g><path d="M211.451 0c30.402 0 58.24 10.976 79.769 29.183l-11.148 0c-19.26-14.022-42.974-22.294-68.621-22.295-25.647 0-49.361 8.272-68.621 22.295l-11.147 0c21.528-18.206 49.366-29.183 79.768-29.183zM335.051 123.6c0 29.387-10.255 56.378-27.382 77.59v-11.512c12.927-18.787 20.494-41.549 20.494-66.078 0-24.529-7.567-47.291-20.494-66.078v-11.512c17.127 21.212 27.383 48.204 27.382 77.59zM211.451 247.2c-30.402 0-58.24-10.976-79.768-29.183l11.147 0c19.26 14.022 42.974 22.294 68.621 22.295 25.647 0 49.361-8.272 68.621-22.295l11.148 0c-21.528 18.206-49.366 29.183-79.769 29.183z" fill="#5e1914" stroke="transparent" data-fill-palette-color="tertiary"></path></g></svg></g><defs></defs></svg><rect width="395.52" height="247.2" fill="none" stroke="none" visibility="hidden"></rect></g></svg></g></svg>